<svg xmlns="http://www.w3.org/2000/svg" viewBox="0 0 96 96" role="img" aria-labelledby="title desc">
  <title id="title">Boniface and Paulina Okafor Memorial Hospital logo</title>
  <desc id="desc">A premium rustic hospital seal with a blue medical cross, paired green leaves, warm earth tones, and hand-drawn memorial detailing.</desc>
  <defs>
    <linearGradient id="okafor-bg" x1="14" y1="6" x2="82" y2="92" gradientUnits="userSpaceOnUse">
      <stop offset="0" stop-color="#0b3a53"/>
      <stop offset=".52" stop-color="#116066"/>
      <stop offset="1" stop-color="#2f6b49"/>
    </linearGradient>
    <linearGradient id="okafor-cross" x1="39" y1="31" x2="59" y2="67" gradientUnits="userSpaceOnUse">
      <stop offset="0" stop-color="#77bfd0"/>
      <stop offset=".48" stop-color="#0f5e75"/>
      <stop offset="1" stop-color="#07334a"/>
    </linearGradient>
    <linearGradient id="okafor-earth" x1="18" y1="70" x2="78" y2="85" gradientUnits="userSpaceOnUse">
      <stop offset="0" stop-color="#6f4b2f"/>
      <stop offset=".5" stop-color="#b98549"/>
      <stop offset="1" stop-color="#7a5335"/>
    </linearGradient>
    <filter id="okafor-soft-shadow" x="-10%" y="-10%" width="120%" height="120%">
      <feDropShadow dx="0" dy="4" stdDeviation="4" flood-color="#052736" flood-opacity=".18"/>
    </filter>
  </defs>

  <rect width="96" height="96" rx="24" fill="url(#okafor-bg)"/>
  <path d="M13.5 22.8c12.4-8 24.1-10.9 35-8.6 11.8 2.4 22.4 2.1 31.9-.9 2.4 9.5 2 22.6-1.2 39.2-3.1 16-11.7 26.2-25.8 30.6-12.8 4-25.2 1.6-37.2-7.3-2.3-18.4-3.2-36-2.7-53z" fill="#123f52" opacity=".28"/>
  <path d="M18.5 73.2c7.5-4.5 15.1-5.9 22.8-4.2 8.6 1.9 16.1 1.6 22.7-.9 4.4-1.7 8.7-.4 13 3.9-4.1 8.1-14.2 12.5-30.2 13.2-14.2.5-23.6-3.5-28.3-12z" fill="url(#okafor-earth)" opacity=".95"/>
  <path d="M26 76.4c8.3-2.5 15.5-2.6 21.6-.4 7.5 2.7 14.9 2 22.4-2.1" fill="none" stroke="#e3bd68" stroke-width="1.45" stroke-linecap="round" opacity=".68"/>

  <path d="M48.2 15.3c17.1.3 29.9 13 29.5 29.1-.4 16.7-12.7 29.1-29.2 29.6-16.9.5-29.7-11.9-30-28.8-.2-16.3 12.4-30.2 29.7-29.9z" fill="#fbf6e8" filter="url(#okafor-soft-shadow)"/>
  <path d="M48.2 15.3c17.1.3 29.9 13 29.5 29.1-.4 16.7-12.7 29.1-29.2 29.6-16.9.5-29.7-11.9-30-28.8-.2-16.3 12.4-30.2 29.7-29.9z" fill="none" stroke="#d5a74f" stroke-width="2.1"/>
  <path d="M24.5 35.9c4.3-7.9 11.9-13.2 22.7-15.9M70.9 35.3c-3.8-7.1-10.3-11.9-19.5-14.4" fill="none" stroke="#c6903d" stroke-width="1.2" stroke-linecap="round" opacity=".42"/>

  <path d="M47.4 60.5c-7.7-6.3-14.9-9.2-21.6-8.8" fill="none" stroke="#25583d" stroke-width="2.3" stroke-linecap="round"/>
  <path d="M35.7 41.9c-6.4-2.8-11.4-1.1-15 5.1 5.4 2.8 10.4 1.1 15-5.1z" fill="#2f7b52"/>
  <path d="M40.2 50c-5.7-1.8-10 .1-13 5.7 4.9 1.8 9.2-.1 13-5.7z" fill="#6aa85d"/>
  <path d="M33 43.8c-3.6.7-6.4 1.8-8.5 3.5M37 51.7c-2.8.7-4.9 1.8-6.4 3.4" fill="none" stroke="#fbf6e8" stroke-width=".85" stroke-linecap="round" opacity=".68"/>

  <path d="M48.7 60.5c7.8-6.4 15-9.4 21.6-9" fill="none" stroke="#25583d" stroke-width="2.3" stroke-linecap="round"/>
  <path d="M60.4 41.8c6.4-2.7 11.4-.9 14.9 5.4-5.5 2.7-10.5.9-14.9-5.4z" fill="#3f8d58"/>
  <path d="M55.9 50.1c5.8-1.7 10.1.3 12.9 5.9-4.9 1.7-9.2-.3-12.9-5.9z" fill="#7ab86d"/>
  <path d="M63.1 43.8c3.5.7 6.4 1.9 8.4 3.6M59.1 51.7c2.8.8 4.9 1.9 6.4 3.5" fill="none" stroke="#fbf6e8" stroke-width=".85" stroke-linecap="round" opacity=".68"/>

  <path d="M43 31.5h10.1c.8 0 1.4.6 1.4 1.4v9.9h9.9c.8 0 1.4.6 1.4 1.4v10c0 .8-.6 1.4-1.4 1.4h-9.9v10c0 .8-.6 1.4-1.4 1.4H43c-.8 0-1.4-.6-1.4-1.4v-10h-9.9c-.8 0-1.4-.6-1.4-1.4v-10c0-.8.6-1.4 1.4-1.4h9.9v-9.9c0-.8.6-1.4 1.4-1.4z" fill="url(#okafor-cross)"/>
  <path d="M46.2 35.1h5v11h10.9v5H51.2v11h-5v-11H35.3v-5h10.9z" fill="#f9f2db" opacity=".22"/>
  <path d="M42.8 31.8c3.6-.3 7.5-.2 11.7.2M31.4 43.4c-.2 3.8-.1 7.7.2 11.7M54.5 66.3c-3.5.4-7.4.5-11.5.2" fill="none" stroke="#062a3d" stroke-width="1" stroke-linecap="round" opacity=".34"/>

  <path d="M34.1 68.2c4.1 2.9 8.8 4.3 14.2 4.3 5.1 0 9.6-1.2 13.5-3.8" fill="none" stroke="#d5a74f" stroke-width="1.35" stroke-linecap="round" opacity=".75"/>
  <path d="M29.5 81.4c12.2 3.6 24.8 3.3 37.7-.8" fill="none" stroke="#0c3f54" stroke-width="1.4" stroke-linecap="round" opacity=".35"/>
</svg>
